<?xml version="1.0" encoding="utf-8"?>
<!-- Generator: Adobe Illustrator 24.1.2, SVG Export Plug-In . SVG Version: 6.00 Build 0)  -->
<svg version="1.1" id="Layer_1" shape-rendering="crispEdges"
	 xmlns="http://www.w3.org/2000/svg" xmlns:xlink="http://www.w3.org/1999/xlink" x="0px" y="0px" viewBox="0 0 24 24"
	 style="enable-background:new 0 0 24 24;" xml:space="preserve">
<style type="text/css">
	.st0{fill:#37684A;}
	.st1{fill:#71BA4E;}
	.st2{fill:#4A8847;}
	.st3{fill:#0E080C;}
	.st4{fill:#B4E568;}
	.st5{fill:#3C6941;}
	.st6{fill:#4C884A;}
	.st7{fill:#BC722C;}
	.st8{fill:#E99F47;}
	.st9{fill:#FBC443;}
	.st10{fill:#FFE979;}
	.st11{fill:#BA762C;}
	.st12{fill:#FECB4C;}
	.st13{fill:#3C6C43;}
	.st14{fill:#FEF7C2;}
	.st15{fill:#C5B7AA;}
	.st16{fill:#96867F;}
	.st17{fill:#5E433C;}
	.st18{fill:#6B554D;}
	.st19{fill:#826557;}
	.st20{fill:#B2A3A0;}
	.st21{fill:#C3B6A6;}
	.st22{fill:#957A60;}
	.st23{fill:#93867D;}
	.st24{fill:#6A5751;}
	.st25{fill:#B3A4A3;}
	.st26{fill:#62433E;}
	.st27{fill:#978686;}
	.st28{fill:#E88C52;}
	.st29{fill:#CC5F45;}
</style>
<g>
	<path d="M8,1h5 M7,2h1"/>
	<path class="st0" d="M8,2.5H7v-1h1V2.5z M13,1.5H8v-1h5V1.5z"/>
</g>
<g>
	<path d="M8,2h4 M7,3h1 M9,3h4 M7,4h6 M10,5h1 M11,7h2"/>
	<path class="st1" d="M13,7.5h-2v-1h2V7.5z M11,5.5h-1v-1H7v-2h1v1h1v-1H8v-1h4v1h1v2h-2V5.5z"/>
</g>
<g>
	<path d="M12,2h1"/>
	<rect x="12" y="1.5" class="st2" width="1" height="1"/>
</g>
<g>
	<path d="M13,2h1 M6,3h1 M14,3h1 M6,4h1 M14,4h1 M11,5h1 M14,5h1 M11,6h1 M14,6h1 M14,7h1 M4,8h4 M14,8h1 M8,9h1 M13,9h1 M8,10h1
		 M13,10h1 M13,11h3 M19,11h1 M19,12h1 M19,13h1 M19,14h1 M5,16h1 M18,16h1 M5,17h1 M17,17h1 M6,18h1 M16,18h1 M7,19h6 M14,19h2
		 M9,20h1 M11,20h2 M14,20h1 M8,21h1 M11,21h1 M14,21h1 M8,22h6"/>
	<path class="st3" d="M14,22.5H8v-2h1v1h2v-2h-1v1H9v-1H7v-1H6v-1H5v-2h1v2h1v1h6v2h-1v1h2V22.5z M15,21.5h-1v-3h2v1h-1V21.5z
		 M17,18.5h-1v-1h1V18.5z M18,17.5h-1v-1h1V17.5z M19,16.5h-1v-1h1V16.5z M20,14.5h-1v-4h1V14.5z M16,11.5h-3v-3h1v2h2V11.5z
		 M9,10.5H8v-2H4v-1h4v1h1V10.5z M15,8.5h-1v-6h-1v-1h1v1h1V8.5z M12,6.5h-1v-2h1V6.5z M7,4.5H6v-2h1V4.5z"/>
</g>
<g>
	<path d="M8,3h1"/>
	<rect x="8" y="2.5" class="st4" width="1" height="1"/>
</g>
<g>
	<path d="M13,3h1"/>
	<rect x="13" y="2.5" class="st5" width="1" height="1"/>
</g>
<g>
	<path d="M13,4h1 M9,5h1 M12,5h2 M10,6h1 M12,6h2 M10,7h1 M13,7h1 M9,8h4 M9,9h4"/>
	<path class="st6" d="M13,9.5H9v-2h1v-2H9v-1h1v1h1v2h2V9.5z M14,7.5h-1v-1h-1v-2h1v-1h1V7.5z"/>
</g>
<g>
	<path d="M3,5h3 M3,6h1 M3,7h1"/>
	<polygon class="st7" points="4,7.5 3,7.5 3,4.5 6,4.5 6,5.5 4,5.5 	"/>
</g>
<g>
	<path d="M6,5h1 M8,6h1 M6,7h1"/>
	<path class="st8" d="M7,7.5H6v-1h1V7.5z M9,6.5H8v-1h1V6.5z M7,5.5H6v-1h1V5.5z"/>
</g>
<g>
	<path d="M7,5h2 M6,6h2"/>
	<polygon class="st9" points="8,6.5 6,6.5 6,5.5 7,5.5 7,4.5 9,4.5 9,5.5 8,5.5 	"/>
</g>
<g>
	<path d="M4,6h2"/>
	<rect x="4" y="5.5" class="st10" width="2" height="1"/>
</g>
<g>
	<path d="M9,6h1 M7,7h3"/>
	<polygon class="st11" points="10,7.5 7,7.5 7,6.5 9,6.5 9,5.5 10,5.5 	"/>
</g>
<g>
	<path d="M4,7h2"/>
	<rect x="4" y="6.5" class="st12" width="2" height="1"/>
</g>
<g>
	<path d="M8,8h1 M13,8h1"/>
	<path class="st13" d="M14,8.5h-1v-1h1V8.5z M9,8.5H8v-1h1V8.5z"/>
</g>
<g>
	<path d="M9,10h3"/>
	<rect x="9" y="9.5" class="st14" width="3" height="1"/>
</g>
<g>
	<path d="M12,10h1"/>
	<rect x="12" y="9.5" class="st15" width="1" height="1"/>
</g>
<g>
	<path d="M17,10h3"/>
	<rect x="17" y="9.5" class="st16" width="3" height="1"/>
</g>
<g>
	<path d="M7,11h1 M6,12h1 M5,13h1 M5,14h1 M5,15h1"/>
	<path class="st17" d="M6,15.5H5v-3h1V15.5z M7,12.5H6v-1h1V12.5z M8,11.5H7v-1h1V11.5z"/>
</g>
<g>
	<path d="M8,11h1 M12,11h1"/>
	<path class="st18" d="M13,11.5h-1v-1h1V11.5z M9,11.5H8v-1h1V11.5z"/>
</g>
<g>
	<path d="M9,11h3 M7,12h6 M6,13h1 M8,13h4 M6,14h5 M6,15h5 M7,16h3"/>
	<polygon class="st19" points="10,16.5 7,16.5 7,15.5 6,15.5 6,12.5 7,12.5 7,13.5 8,13.5 8,12.5 7,12.5 7,11.5 9,11.5 9,10.5 
		12,10.5 12,11.5 13,11.5 13,12.5 12,12.5 12,13.5 11,13.5 11,15.5 10,15.5 	"/>
</g>
<g>
	<path d="M16,11h1 M13,12h1 M11,14h1 M10,16h1"/>
	<path class="st20" d="M11,16.5h-1v-1h1V16.5z M12,14.5h-1v-1h1V14.5z M14,12.5h-1v-1h1V12.5z M17,11.5h-1v-1h1V11.5z"/>
</g>
<g>
	<path d="M17,11h2 M14,12h5 M12,13h7 M12,14h7 M11,15h7 M11,16h6"/>
	<polygon class="st21" points="17,16.5 11,16.5 11,14.5 12,14.5 12,12.5 14,12.5 14,11.5 17,11.5 17,10.5 19,10.5 19,14.5 18,14.5 
		18,15.5 17,15.5 	"/>
</g>
<g>
	<path d="M7,13h1"/>
	<rect x="7" y="12.5" class="st22" width="1" height="1"/>
</g>
<g>
	<path d="M18,15h1"/>
	<rect x="18" y="14.5" class="st23" width="1" height="1"/>
</g>
<g>
	<path d="M6,16h1"/>
	<rect x="6" y="15.5" class="st24" width="1" height="1"/>
</g>
<g>
	<path d="M17,16h1"/>
	<rect x="17" y="15.5" class="st25" width="1" height="1"/>
</g>
<g>
	<path d="M6,17h4 M7,18h3"/>
	<polygon class="st26" points="10,18.5 7,18.5 7,17.5 6,17.5 6,16.5 10,16.5 	"/>
</g>
<g>
	<path d="M10,17h7 M10,18h6"/>
	<polygon class="st27" points="16,18.5 10,18.5 10,16.5 17,16.5 17,17.5 16,17.5 	"/>
</g>
<g>
	<path d="M13,19h1 M13,20h1 M12,21h2"/>
	<polygon class="st28" points="14,21.5 12,21.5 12,20.5 13,20.5 13,18.5 14,18.5 	"/>
</g>
<g>
	<path d="M10,20h1 M9,21h2"/>
	<polygon class="st29" points="11,21.5 9,21.5 9,20.5 10,20.5 10,19.5 11,19.5 	"/>
</g>
</svg>
