<svg xmlns="http://www.w3.org/2000/svg" viewBox="0 -0.5 24 24" shape-rendering="crispEdges">
<path stroke="#37684a" d="M8 1h5M7 2h1" />
<path stroke="#71ba4e" d="M8 2h4M7 3h1M9 3h4M7 4h6M10 5h1M11 7h2" />
<path stroke="#4a8847" d="M12 2h1" />
<path stroke="#0e080c" d="M13 2h1M6 3h1M14 3h1M6 4h1M14 4h1M11 5h1M14 5h1M11 6h1M14 6h1M14 7h1M4 8h4M14 8h1M8 9h1M13 9h1M8 10h1M13 10h1M13 11h3M19 11h1M19 12h1M19 13h1M19 14h1M5 16h1M18 16h1M5 17h1M17 17h1M6 18h1M16 18h1M7 19h6M14 19h2M9 20h1M11 20h2M14 20h1M8 21h1M11 21h1M14 21h1M8 22h6" />
<path stroke="#b4e568" d="M8 3h1" />
<path stroke="#3c6941" d="M13 3h1" />
<path stroke="#4c884a" d="M13 4h1M9 5h1M12 5h2M10 6h1M12 6h2M10 7h1M13 7h1M9 8h4M9 9h4" />
<path stroke="#bc722c" d="M3 5h3M3 6h1M3 7h1" />
<path stroke="#e99f47" d="M6 5h1M8 6h1M6 7h1" />
<path stroke="#fbc443" d="M7 5h2M6 6h2" />
<path stroke="#ffe979" d="M4 6h2" />
<path stroke="#ba762c" d="M9 6h1M7 7h3" />
<path stroke="#fecb4c" d="M4 7h2" />
<path stroke="#3c6c43" d="M8 8h1M13 8h1" />
<path stroke="#fef7c2" d="M9 10h3" />
<path stroke="#c5b7aa" d="M12 10h1" />
<path stroke="#96867f" d="M17 10h3" />
<path stroke="#5e433c" d="M7 11h1M6 12h1M5 13h1M5 14h1M5 15h1" />
<path stroke="#6b554d" d="M8 11h1M12 11h1" />
<path stroke="#826557" d="M9 11h3M7 12h6M6 13h1M8 13h4M6 14h5M6 15h5M7 16h3" />
<path stroke="#b2a3a0" d="M16 11h1M13 12h1M11 14h1M10 16h1" />
<path stroke="#c3b6a6" d="M17 11h2M14 12h5M12 13h7M12 14h7M11 15h7M11 16h6" />
<path stroke="#957a60" d="M7 13h1" />
<path stroke="#93867d" d="M18 15h1" />
<path stroke="#6a5751" d="M6 16h1" />
<path stroke="#b3a4a3" d="M17 16h1" />
<path stroke="#62433e" d="M6 17h4M7 18h3" />
<path stroke="#978686" d="M10 17h7M10 18h6" />
<path stroke="#e88c52" d="M13 19h1M13 20h1M12 21h2" />
<path stroke="#cc5f45" d="M10 20h1M9 21h2" />
</svg>